<svg xmlns="http://www.w3.org/2000/svg" xmlns:xlink="http://www.w3.org/1999/xlink" version="1.1" width="1000" height="1000" viewBox="0 0 1000 1000" xml:space="preserve">
<desc>Created with Fabric.js 3.5.0</desc>
<defs>
</defs>
<rect x="0" y="0" width="100%" height="100%" fill="rgba(0,0,0,0)"/>
<g transform="matrix(0.9703 0 0 0.9703 500.0111 500.0083)" id="112943">
<g style="" vector-effect="non-scaling-stroke">
		<g transform="matrix(1 0 0 1 -112.0235 88)" id="Accent">
<path style="stroke: none; stroke-width: 1; stroke-dasharray: none; stroke-linecap: butt; stroke-dashoffset: 0; stroke-linejoin: miter; stroke-miterlimit: 4; is-custom-font: none; font-file-url: none; fill: rgb(232,69,255); fill-rule: evenodd; opacity: 1;" transform=" translate(-399.9765, -472)" d="M 285.20391 455.105874 C 289.872567 451.924069 299.420207 440.53401 304.422439 437.901701 C 315.545277 432.048733 365.096993 420.542613 366.708116 419.862681 C 369.162172 418.827519 385.103153 415.210002 394.390639 412.924596 C 416.200315 407.557294 494.356383 372.889074 514.956332 364 C 517.586172 370.920045 539.296191 401.468431 535.571507 404.598895 C 523.309534 414.906113 501.330995 427.740182 487.127092 435.126467 C 475.638845 441.100158 463.470992 446.043737 451.186872 450.080315 C 437.240417 454.663613 427.6678 459.577664 413.768406 464.266422 C 400.093239 468.87886 416.435617 483.305913 423.458673 486.286514 C 431.335735 489.630671 443.536807 491.327726 451.5855 494.226458 C 437.414817 516.250713 425.5141 542.981765 423.133403 569.364525 C 422.560375 575.71426 417.720086 581.535313 409.847176 579.634278 C 405.784766 578.653233 368.301246 573.660587 362.188944 572.26742 C 321.386289 562.962061 248.137129 514.233118 267 464.266422 C 271.321242 466.261815 281.187176 457.843642 285.20391 455.105874 Z" stroke-linecap="round"/>
</g>
		<g transform="matrix(1 0 0 1 16.4992 0)" id="ink-layer">
<path style="stroke: none; stroke-width: 1; stroke-dasharray: none; stroke-linecap: butt; stroke-dashoffset: 0; stroke-linejoin: miter; stroke-miterlimit: 4; is-custom-font: none; font-file-url: none; fill: rgb(140,82,255); fill-rule: evenodd; opacity: 1;" transform=" translate(-474.4992, -354)" d="M 254.031296 159.99996 C 257.079377 159.742791 264.960626 153.653767 260.825429 150.57443 C 256.65284 147.466965 253.654614 157.879651 254.031296 159.99996 M 95.245369 183.352624 C 96.0420265 183.212342 95.694232 178.851698 94.4397936 178.294542 C 90.4802868 176.53705 90.145869 183.143525 90.0492594 184.911604 C 89.928869 187.142877 89.6494443 193.427763 94.4635745 191.70468 C 97.1968827 190.726678 95.5010128 185.025417 95.245369 183.352624 M 329.000467 203.722859 C 328.892739 207.615045 336.75554 215.099279 339.687386 210.609561 C 342.152864 206.837978 329.202287 195.975491 329.000467 203.722859 M 51.000062 115.944436 C 53.2783146 121.755558 64.544953 113.835498 64.9636362 109.572777 C 65.823407 100.842905 50.8824386 110.135952 51.000062 115.944436 M 144.999371 140.99996 C 150.246261 140.568752 157.150495 133.898107 162.210045 131.405914 C 165.634129 129.719655 174.950538 127.709644 175.963816 123.881119 C 176.845818 120.554062 161.038144 127.675203 159.688475 128.30755 C 153.487108 131.213042 147.895621 134.524944 144.999371 140.99996 M 538.896669 94.9999604 C 543.078727 91.7663551 548.162523 89.6802904 553.5241 89.8169024 C 556.201398 89.8852084 561.786316 91.5600711 561.995698 86.9302915 C 562.337689 79.401606 538.694266 88.5832963 534.999371 90.0600717 C 536.298936 91.707612 537.5985 93.3537862 538.896669 94.9999604 M 277.999371 388.386832 C 274.931218 383.29186 269.412833 380.346329 265.263317 375.99996 C 266.783805 383.136832 263.355198 389.484597 260.999371 395.99996 C 266.666515 393.462251 272.332228 390.924541 277.999371 388.386832 M 810.804509 496.99996 C 812.495907 491.341453 814.188765 485.714037 816.166443 480.141736 C 818.377821 473.902398 819.477668 473.362551 814.182922 468.99996 C 809.789379 477.305416 805.394375 485.610872 800.999371 493.917742 C 804.128018 495.247576 807.392502 496.542079 810.804509 496.99996 M 355.999371 87.3647349 C 350.181033 80.8065309 322.912815 80.3947684 326.287479 94.8691746 C 327.464623 99.9234911 334.16857 94.5542172 338.368335 93.3761947 C 342.536471 92.2063529 354.338167 92.0509193 355.999371 87.3647349 M 354.999371 180.214876 C 354.293951 178.541136 352.885878 172.5003 350.795899 172.024208 C 348.759863 171.560254 340.726376 177.896457 339.215947 178.863476 C 331.68317 183.690481 324.339887 188.882984 316.999371 193.99996 C 319.809985 193.99996 322.361945 192.999223 325.155961 192.977644 C 328.475584 192.949321 330.857413 194.312859 334.094046 193.534658 C 341.048656 191.864965 349.120872 184.158481 354.999371 180.214876 M 362.535724 30.5702153 C 363.189332 27.5704694 397.281012 36.5753299 401.378366 38.2242062 C 403.610476 39.1210374 415.128049 45.107878 412.652769 36.0847435 C 411.244347 30.9455349 397.934621 27.0278724 393.669998 25.6193694 C 382.827118 22.0404785 371.395287 19.494771 359.849602 20.0851615 C 357.607653 20.1990225 340.629283 21.1787896 347.719182 28.0034224 C 350.162134 30.3537388 358.919088 29.6129393 362.535724 30.5702153 M 369.999371 442.712888 C 376.350937 445.837812 382.835887 448.228426 389.474849 450.67247 C 392.424428 451.757493 397.018622 454.600201 400.272098 453.886442 C 402.937033 453.30009 403.790968 449.242211 405.190815 446.525541 C 410.30892 436.58771 416.42122 428.570589 423.999371 420.376741 C 420.480502 417.810769 402.618011 429.130911 398.198454 430.802286 C 393.773397 432.475031 389.598607 434.160106 385.268431 436.158906 C 381.191273 438.041258 373.14559 439.723593 369.999371 442.712888 M 482.463196 357.99996 C 491.719695 353.811268 500.494055 346.38297 508.085995 339.732454 C 516.803388 332.095551 524.617639 324.092551 530.999371 314.210718 C 527.158939 314.406891 518.680531 326.758836 518.586048 313.311365 C 518.537418 306.450862 527.938419 299.693971 530.856258 293.330805 C 523.597785 289.233292 516.945111 313.718906 508.616764 307.784004 C 500.594095 302.064616 513.25335 282.4018 515.69183 276.197506 C 510.985771 273.067039 484.173606 308.1128 480.29288 312.597132 C 477.865515 315.40433 472.125708 319.141273 470.755713 322.415416 C 469.940107 324.364705 469.823394 330.549658 470.217997 332.342838 C 471.03916 336.092215 475.197776 340.582073 477.049909 344.073111 C 479.393907 348.492513 481.435005 353.085983 482.463196 357.99996 M 865.154975 484.352021 C 857.149932 473.052695 865.418492 468.125252 871.927933 458.74677 C 877.133804 451.244815 881.923374 442.97563 885.222948 434.598423 C 893.47609 413.645021 900.923261 394.165143 904.999371 371.99996 C 899.389814 374.560624 895.882789 384.306103 893.076609 389.441279 C 889.303264 396.344961 885.984065 403.590712 881.790213 410.279736 C 873.94216 422.796381 866.237078 436.148117 856.254253 446.997354 C 851.731004 451.913717 847.901591 457.444972 842.683105 461.875239 C 840.298833 463.898565 835.737739 465.560434 833.981423 468.09063 C 832.323226 470.479567 834.177659 472.007102 833.548301 474.861363 C 832.902123 477.789022 829.940355 480.910567 828.669024 483.730205 C 826.999613 487.433404 825.44514 491.144912 823.582296 494.766403 C 821.549848 498.714727 820.994779 500.7796 820.446719 504.639291 C 819.848198 508.859055 821.68441 509.29668 817.999371 513.185454 C 824.677015 516.129733 831.354659 519.074011 838.032303 522.01829 C 840.284816 523.012642 842.538731 524.005609 844.792646 524.99996 C 845.267819 524.109475 845.742991 523.21899 846.218163 522.328505 C 848.052974 520.546151 849.740606 516.150506 850.790471 513.796191 C 855.177756 503.971774 860.132725 494.108579 865.154975 484.352021 M 220.319857 436.919483 C 201.359334 486.838343 267.988333 528.869513 309.002675 538.165868 C 314.684153 539.452522 320.227873 541.138483 325.882912 542.520804 C 332.04863 544.027909 337.524167 543.728429 343.678753 544.359278 C 348.575427 544.859798 350.908966 548.643504 355.523167 549.686138 C 363.233445 551.427558 362.761728 545.633454 363.314152 539.424792 C 365.654648 513.099678 379.089541 487.700734 393.309238 465.734716 C 386.813735 463.410974 380.378067 460.875101 373.966053 458.330908 C 368.479385 456.152747 360.077533 450.031433 354.178981 449.706997 C 349.816642 449.468522 343.169466 453.193996 338.932361 454.828657 C 331.876085 457.551706 324.798937 459.871288 317.444881 461.727786 C 304.584675 464.974925 290.274531 469.400572 276.967656 469.7361 C 273.131302 469.833154 262.607418 471.620328 259.84669 469.249446 C 254.582661 464.728131 261.889406 460.959676 266.296274 459.345812 C 292.560759 449.727794 320.447729 445.639061 346.787355 435.778409 C 360.340525 430.702502 373.754546 425.035955 387.393989 420.036304 C 399.150738 415.727122 411.465477 411.911526 422.827041 406.611009 C 437.831542 399.61344 452.901442 390.895248 465.89384 380.624197 C 468.494546 378.569432 473.943644 375.516401 475.72615 372.53824 C 477.295757 369.916405 477.099556 372.531308 476.773946 369.352107 C 476.540175 367.068573 473.746051 363.973947 472.596675 361.816583 C 468.315043 353.773607 464.445292 345.511567 461.191975 336.99996 C 440.465643 345.890076 420.748146 357.989895 400.326552 367.490063 C 379.772766 377.052622 356.587661 383.799238 334.599242 389.178784 C 325.240041 391.469251 314.480994 392.192994 305.898248 396.718468 C 302.251137 398.64013 298.645771 400.864046 294.739842 401.976004 C 293.586292 404.188827 292.450831 404.622796 291.332068 403.276523 C 290.630754 402.490388 289.724891 402.157633 288.613085 402.279643 C 286.223887 402.684495 283.787378 403.813091 281.552635 404.679641 C 270.243948 409.063694 259.415327 414.554159 248.678544 420.155542 C 243.589843 422.809266 238.370342 425.422783 233.500107 428.45363 C 230.88966 430.078586 228.550556 431.717406 226.414609 433.948254 C 223.854257 436.622776 224.463732 438.821735 220.319857 436.919483 M 646.979404 140.530022 C 651.770868 140.607612 656.137965 138.012497 661.134678 138.156593 C 668.992401 138.383822 675.21229 144.476037 679.772155 150.350723 C 688.796195 161.975396 686.49546 175.998438 681.961944 189.007265 C 679.792958 195.224179 676.815454 201.191696 673.094616 206.634093 C 669.800918 211.451613 663.912479 216.008651 661.613131 221.373459 C 657.821564 230.220126 665.471265 226.458387 670.154557 224.568512 C 676.042996 222.190927 681.563927 219.235572 686.562027 215.254918 C 708.838521 197.513089 725.785464 172.851878 731.46172 144.530073 C 734.2312 130.712092 734.017629 114.558091 724.39171 103.279802 C 715.592336 92.9672347 700.401107 89.5976036 687.414922 91.5096476 C 673.377527 93.5782575 660.656225 99.5236059 649.226052 107.177324 C 645.906005 109.401114 642.866095 111.828579 639.748523 114.315622 C 635.65879 117.578566 633.208278 117.66447 634.231752 122.778495 C 634.991729 126.580414 637.062252 130.519502 638.396373 134.167626 C 640.894036 141.001105 639.982895 142.769053 646.979404 140.530022 M 662.255758 258.331302 L 661.286317 259.987537 C 667.969924 260.30631 674.195123 254.410393 679.8899 251.531733 C 687.288124 247.791 693.856783 242.687858 700.339577 237.534821 C 711.772063 228.445628 723.354119 218.203309 731.863046 206.271492 C 750.940271 179.523654 768.268347 145.613123 763.062445 111.701206 C 757.452149 75.1517869 725.484121 61.082804 691.420715 65.9212258 C 676.0703 68.1013568 662.365166 74.9549792 648.626795 81.9125493 C 641.702212 85.4204397 635.857865 89.9705797 629.513562 94.3751928 C 626.221616 96.6620435 623.217732 96.9586411 623.00307 100.957165 C 622.841034 103.970264 628.049705 110.783693 629.458165 113.514054 C 646.707301 95.9177775 665.29565 81.3609332 691.344544 80.4614385 C 722.334821 79.3914696 740.660036 108.775423 740.524314 136.913388 C 740.391362 164.508054 728.48939 191.052154 709.516034 210.884001 C 700.893544 219.896965 692.672679 227.128957 682.084993 233.706771 C 676.807076 236.985976 672.914076 239.929777 667.012946 242.107136 C 662.838808 243.648335 663.273672 242.836156 662.208671 246.700241 C 661.30432 249.979446 662.22806 254.925974 662.255758 258.331302 M 493.864672 633.241236 C 493.461505 638.214062 492.450806 643.109562 491.326108 647.960072 C 490.92155 649.702038 488.64713 655.200688 489.046127 657.159169 C 489.705097 660.395654 488.82786 658.314855 491.663934 660.003395 C 494.622349 661.76645 498.065954 661.659598 501.305196 662.195263 C 503.30435 662.52566 510.629484 665.973037 511.86123 665.428936 C 514.0147 664.477112 513.946579 661.121121 516.309974 659.791097 C 519.529752 657.977429 524.274615 659.530998 527.312273 660.949596 C 535.43262 664.737211 541.011623 672.578166 548.869216 676.870515 C 562.822978 684.490736 579.380646 688.709976 594.948468 690.450536 C 603.381618 691.393925 612.01218 693.048722 620.341062 691.07337 C 626.902959 689.515583 635.432035 689.658989 638.999371 682.618017 C 607.297902 673.899754 558.912255 663.231444 546.37792 626.851216 C 539.564391 633.028938 528.176997 629.702473 519.942651 628.849064 C 510.883897 627.911299 502.788574 628.12922 494.504179 623.99996 C 493.898038 627.246287 493.713137 629.940077 493.864672 633.241236 M 213.184367 407.922826 C 228.107361 408.824464 242.254897 401.762323 251.438386 389.847123 C 253.698851 386.912297 256.016809 383.916531 257.37421 380.440168 C 257.668687 379.559304 257.961762 378.677056 258.25624 377.796193 C 259.680949 375.362739 259.056938 374.214569 256.385607 374.351685 C 254.880967 372.288027 251.065381 371.59414 252.150741 367.853241 C 252.968267 365.0306 255.984557 364.984895 258.606808 364.097107 C 257.301291 361.903258 256.520225 360.802179 254.650995 358.850707 C 249.793519 363.220398 240.978829 371.79635 237.565695 361.757833 C 235.926437 356.9394 238.812316 352.332872 238.097157 347.684795 C 237.802679 345.762408 235.365528 340.851179 233.953439 339.701625 C 226.430242 333.577132 215.594875 336.111692 207.613135 339.71686 C 202.112016 342.20156 200.928497 343.367734 200.031042 349.06426 C 199.119564 354.856352 198.273993 360.645674 197.262954 366.421145 C 200.563906 364.700969 201.165481 360.985 203.317971 358.30917 C 204.124278 359.777275 204.930585 361.246766 205.739697 362.714871 C 206.875539 362.077769 207.93706 362.111009 208.921456 362.817362 C 210.514438 365.266051 209.511813 368.897535 209.022419 371.465334 C 214.334231 370.969502 216.579271 376.895939 211.223989 379.296153 C 205.676595 381.782238 203.174939 375.004022 202.987034 370.613556 C 200.917279 373.08579 198.791432 371.76311 197.348493 373.03316 C 195.906956 374.30321 195.339035 376.949955 194.825803 379.848771 C 193.983037 384.611803 191.82634 391.484199 193.821775 396.262467 C 196.784779 403.359234 206.231895 407.051657 213.184367 407.922826 M 645.610448 179.975147 C 640.672763 186.841966 632.253591 195.831029 630.49332 204.127455 C 635.931748 200.935776 647.430696 185.578593 650.393307 197.811976 C 652.0936 204.833946 643.371752 213.20102 641.229298 219.99996 C 649.806085 217.178151 655.915424 208.340082 661.267373 201.518978 C 668.090863 192.822207 675.05802 181.357654 676.800158 170.298986 C 678.208933 161.350095 672.000561 153.009341 662.776575 152.132461 C 658.064852 151.683631 653.145299 152.431681 648.592586 153.524665 C 646.517085 154.021979 643.42057 154.639813 641.568241 155.75219 C 639.241671 157.14855 638.923651 160.419189 636.732378 157.698505 C 633.821376 163.185588 630.910374 168.67267 627.999371 174.158368 C 630.896425 173.106943 636.807699 168.644965 639.973955 169.106262 C 644.597804 169.780892 645.547681 176.496716 645.610448 179.975147 M 183.280472 45.6443706 C 170.335001 46.0259512 156.804162 48.7825904 144.549341 52.8803732 C 141.50599 53.8988567 128.667205 57.5210666 131.370846 62.7720084 C 133.157832 66.2427084 142.793238 61.3382754 145.706039 60.5204023 C 158.189673 57.0146306 171.0439 54.7027011 183.830746 52.5927849 C 186.927439 52.0821403 197.430369 52.1326436 197.97222 48.0741412 C 198.636198 43.1220106 186.935862 45.6387591 183.280472 45.6443706 M 535.592814 610.466245 C 528.576447 611.323213 521.838988 611.002678 514.815577 610.14306 C 508.904982 609.419869 502.885922 606.99996 497.004907 606.99996 C 497.004907 613.295432 496.578093 613.335168 503.219766 614.682211 C 507.855555 615.622624 512.557549 616.15111 517.24264 616.80675 C 525.491556 617.960412 534.649035 621.197554 542.999371 619.533949 C 542.796529 618.441215 542.157013 611.063606 541.292116 610.333792 C 540.804731 609.924514 536.301353 610.472867 535.592814 610.466245 M 422.190198 144.677257 C 424.152042 145.927353 428.661825 150.911981 430.999371 150.99996 C 430.164631 145.22877 423.725792 135.180727 416.331988 138.747179 C 414.520424 139.621721 410.714227 143.976048 412.435623 145.897151 C 413.355067 146.924016 419.785709 144.683823 422.190198 144.677257 M 353.78103 196.016552 C 353.852355 195.011021 353.925135 194.005491 353.999371 192.99996 C 351.286125 194.595402 347.926591 195.35022 345.999371 197.920356 C 348.313782 198.945997 350.626736 199.972979 352.942602 200.99996 C 353.222078 199.338824 353.501554 197.677688 353.78103 196.016552 M 567.457133 349.235457 C 580.276018 353.724423 592.028167 359.719893 601.4635 369.897473 C 609.619583 378.697679 613.453165 394.204257 615.443571 405.739774 C 620.370279 434.285596 610.864108 460.744528 604.595647 488.053212 C 601.416275 501.906107 596.668745 515.236933 592.224013 528.731599 C 588.343207 540.515655 585.015214 552.856492 579.657923 564.061549 C 575.115962 573.562939 569.312809 582.929645 565.316717 592.786486 C 563.166578 598.090491 559.68163 616.292115 551.519991 610.57573 C 549.293458 616.399028 548.751756 615.90334 551.132466 619.947991 C 552.856189 622.876301 558.701011 626.94178 561.459523 629.325805 C 568.809999 635.68228 578.120323 640.919638 586.743103 645.369726 C 602.537181 653.52151 619.467443 659.619727 635.732384 667.050889 C 642.923127 670.338816 650.720854 674.222403 649.10686 683.629376 C 647.755384 691.514571 643.192589 697.494767 636.075462 701.003464 C 629.394474 704.298334 619.836911 706.842035 612.486435 707.875066 C 608.125042 708.488776 607.124977 706.674028 603.569192 706.046434 C 599.611991 705.349416 594.993637 706.697633 590.911428 706.66292 C 572.585243 706.503245 556.53976 701.892093 541.730469 691.264644 C 536.43846 687.467143 528.647678 677.164599 521.72223 677.165987 C 518.181723 677.165987 518.928994 679.316748 515.814903 680.578879 C 511.971599 682.135368 505.350337 679.197338 501.572315 678.507262 C 493.523183 677.038247 485.337932 675.545628 479.977863 668.612932 C 474.183043 661.120678 476.242899 651.840057 478.733338 643.520267 C 481.540464 634.141064 486.262991 624.62579 488.270066 615.104962 C 488.758986 612.788972 489.209015 608.472179 488.71315 606.115923 C 487.940878 602.460047 484.250361 600.27874 484.139243 596.320175 C 484.104518 595.116361 485.828241 593.527936 486.129649 592.285244 C 486.79497 589.555486 486.692186 586.722981 486.965815 583.944626 C 487.454735 578.98913 488.585364 574.240518 489.364581 569.343339 C 491.136918 558.197986 494.631588 548.256447 498.015141 537.51792 C 501.297297 527.095966 504.421111 519.3399 510.767355 510.316149 C 514.052289 505.642515 525.041889 488.991827 519.674875 484.200172 C 512.329956 498.627899 503.740511 509.880165 492.499506 521.365697 C 483.901728 530.152017 475.495628 541.962454 464.73521 548.218958 C 452.903889 555.098892 438.446009 559.14632 425.381275 562.784145 C 419.166984 564.512806 414.011095 568.349185 407.31205 569.0587 C 400.051858 569.826531 392.662491 568.92124 385.552309 567.302269 C 383.550791 566.846846 377.778195 563.771357 375.966967 563.967133 C 373.298739 564.257326 369.46099 569.01288 366.533023 569.886236 C 359.406173 572.012003 354.539192 567.95069 349.133286 564.197621 C 343.26624 560.123812 341.491125 559.111608 334.721243 558.621473 C 326.42904 558.021648 318.364629 555.098892 310.208546 553.309137 C 295.868729 550.162834 283.680441 543.78692 270.646264 537.112483 C 255.70502 529.46333 242.925026 518.913636 231.663186 506.452001 C 215.107949 488.130967 192.05229 437.363863 219.095707 419.588503 C 203.175232 417.426635 188.593733 410.474501 186.65333 392.454768 C 185.639375 383.02558 187.547832 372.581411 189.918819 363.492401 C 191.000833 359.342225 192.291195 355.218431 193.527386 351.111298 C 194.458002 349.724204 194.951089 348.206592 195.002481 346.557074 C 195.573351 344.420198 194.749687 343.355232 192.531488 343.364951 C 188.338161 338.462218 185.185179 334.134316 184.337902 327.172462 C 184.071218 324.966163 183.832314 321.583818 185.40186 319.707978 C 186.128296 318.954031 187.004742 318.450012 188.028419 318.197308 C 190.485522 318.337545 191.180012 317.126788 190.111887 314.566425 C 191.30502 310.938319 189.535461 308.111368 194.031585 306.596533 C 195.473345 306.903387 196.90816 307.2394 198.337419 307.601794 C 200.161148 308.433496 201.347336 307.830894 201.898761 305.799543 C 206.135146 304.141695 204.180853 301.691022 209.936781 303.823732 C 213.420339 305.115021 216.734443 307.337983 219.270718 310.045524 C 222.452868 308.003066 215.216289 295.37759 214.974607 291.349601 C 214.402347 281.855154 218.327601 274.004671 223.434876 266.205562 C 233.361907 251.05027 247.218359 238.017968 260.881743 226.292229 C 287.05427 203.836293 314.549104 182.45782 344.101016 164.567217 C 331.90995 156.100247 317.667362 153.805085 303.160868 157.740046 C 289.78778 161.368152 278.94819 167.956504 266.637671 173.720097 C 255.234156 179.057425 243.129206 181.24984 239.49286 166.684653 C 235.418985 150.369978 248.417048 144.313415 260.076136 136.997498 C 257.164836 134.82591 247.580883 136.378234 243.955648 136.635104 C 235.881515 137.20577 228.160182 139.028849 220.313841 140.640877 C 216.551098 141.412874 213.093929 141.239313 209.36591 141.996037 C 203.823885 143.120708 198.0374 144.381451 192.430093 145.98376 C 179.090341 149.799311 165.849206 155.589285 154.322072 163.391171 C 144.358927 170.130868 137.447369 179.647531 129.42046 188.413024 C 120.265702 198.407325 111.494301 208.240561 97.9225893 211.899214 C 91.5680115 213.612602 84.1133626 215.167703 79.6075155 209.491585 C 75.4155776 204.213961 75.1822292 197.85332 75.3197381 191.399651 C 75.6225355 177.145484 82.5090921 161.741654 90.5193326 150.09367 C 99.2143396 137.450143 110.859537 130.209204 121.863027 120.031624 C 105.95922 121.168791 90.5887815 129.552452 75.9628353 135.346592 C 72.8848583 136.567068 69.7777129 137.937501 66.6830682 139.066338 C 63.3828547 140.270152 61.1966022 139.532868 58.0352865 140.084096 C 50.8195419 141.34345 44.6219187 144.384227 37.6034091 139.535645 C 24.3247722 130.364715 37.6284107 111.707668 46.7706688 105.982953 C 59.504826 98.0102833 72.4598308 91.2969679 86.4885162 85.6097415 C 78.8935804 77.3718718 85.3801112 65.6155861 92.3805641 59.7714611 C 101.238082 52.3764006 112.516589 48.1387504 123.189502 44.1801853 C 131.630326 41.0491561 139.919751 38.0430904 148.688374 36.1589189 C 157.905637 34.1789422 168.684112 31.1534377 178.037495 31.4436306 C 186.808896 31.7157733 194.587177 30.1703917 203.471085 29.9232417 C 210.86323 29.7177462 218.272042 29.8954721 225.662798 29.7038614 C 245.548807 29.1901227 265.508432 30.5313973 284.943022 31.9615348 C 269.544804 -13.0669694 370.972199 0.838688028 392.611099 6.72030208 C 412.27626 12.0659617 434.808274 18.2669268 451.326009 30.9507192 C 458.323684 36.3227599 464.969947 42.4306967 471.178682 48.698309 C 480.338997 57.9456059 485.410158 70.0559548 490.254916 82.009405 C 502.5446 75.9889427 514.295361 69.4283605 527.742064 66.443122 C 540.537336 63.6036742 553.64374 59.7547993 566.514017 57.609593 C 576.299372 55.9781255 590.50168 54.8715045 598.736935 61.780596 C 607.680569 69.2853467 612.340593 80.9638773 617.679827 90.9651205 C 643.320375 66.6361211 671.919447 48.8871427 708.475979 50.0673533 C 744.247738 51.2225712 767.771482 82.1135413 772.107874 115.588478 C 776.884571 152.47353 760.454342 191.01643 738.182068 219.580302 C 728.19531 232.390446 717.861308 244.76183 704.418772 254.318759 C 697.753063 259.056263 690.720664 264.246412 683.411857 267.945331 C 679.767177 269.789236 675.782197 271.455416 671.955561 272.874446 C 670.22906 273.514536 668.451167 274.157404 666.655218 274.591999 C 661.527108 275.83608 662.523006 274.175454 660.615938 278.66442 C 659.068616 282.309188 659.258906 288.579577 658.596363 292.579797 C 657.83937 297.152071 657.389341 301.786827 656.283713 306.29662 C 654.368312 314.11378 652.373738 321.739328 649.974972 329.373208 C 645.433011 343.820374 639.321505 358.381395 631.834909 371.559487 C 638.183931 374.317015 647.074784 374.594711 653.859945 375.430578 C 661.203476 376.33448 668.55673 378.233925 676.185001 380.366635 C 691.469323 384.640386 705.127151 388.247665 719.661425 394.645794 C 734.749901 401.288297 748.197993 411.206231 762.726711 419.099757 C 776.087298 426.358747 789.592338 435.450533 802.000085 444.164653 C 804.951665 446.237658 806.779561 448.039909 809.129713 450.66553 C 811.534035 453.348079 812.299363 453.872926 815.171771 456.197247 C 816.467688 457.244163 820.234598 462.528729 821.713861 462.723117 C 824.362643 463.074403 823.955672 461.097203 826.034974 458.336899 C 830.376921 452.574694 836.432868 448.110721 840.744259 442.202726 C 844.340324 437.276388 848.090567 432.287569 851.933871 428.051307 C 861.235862 417.798749 868.943305 406.435404 875.556233 394.144552 C 878.998122 387.746422 882.621968 381.656536 886.35971 375.618023 C 890.080784 369.605892 896.69649 361.670711 904.106691 362.026163 C 903.510819 358.964558 901.617641 358.454985 904.884519 356.58331 C 906.988822 355.376718 911.08492 357.320594 912.707248 358.545236 C 916.999371 361.788732 917.189482 368.081337 916.918631 372.807734 C 916.221364 384.988895 913.672588 397.013158 910.11958 408.530625 C 905.84986 422.376577 900.498124 434.592451 894.657469 447.806644 C 890.007168 458.334122 884.233183 472.255053 872.661601 477.059204 C 880.432937 488.154572 876.700751 497.196373 871.50736 508.976263 C 867.711281 517.587634 862.697068 526.486422 855.060462 532.184756 C 846.451572 538.609267 837.114857 533.159472 828.111497 528.91349 C 822.673645 526.347574 806.044791 520.295176 809.426955 512.40165 C 805.272519 511.847646 802.65985 508.830472 798.87905 507.901577 C 794.876013 506.918531 795.563558 508.544445 791.328561 509.153989 C 788.081129 509.620519 783.22387 506.713036 780.166728 505.671673 C 775.059453 503.934681 769.967457 502.153257 764.867127 500.396826 C 750.512032 495.452438 736.398619 490.584417 721.901848 486.623075 C 694.929269 479.253007 667.623336 475.072285 640.745208 468.490875 C 635.35736 467.171816 630.000069 465.898577 624.389983 464.841942 C 623.231575 464.62395 617.221464 464.289326 616.490861 463.04941 C 615.211612 460.876434 619.143811 448.7161 619.481332 446.237658 C 621.696754 429.970191 620.973096 412.161508 617.85206 396.078709 C 616.556143 389.393163 610.76688 380.735972 610.816883 374.210101 C 610.851607 369.832215 614.731025 365.051668 617.00895 361.08616 C 622.642648 351.280693 628.545808 340.686568 632.719689 330.482606 C 639.108991 314.87328 643.023133 297.25343 645.845538 280.534706 C 647.315078 271.819199 649.026299 262.370572 649.426325 253.553704 C 649.731901 246.833447 649.180476 239.784118 650.155539 232.901408 C 646.435854 233.254083 641.173014 235.181297 637.822797 233.118011 C 633.591968 230.514606 632.455783 223.082056 632.996096 218.643076 C 618.510436 221.171504 618.991023 207.433853 619.888303 196.69116 C 593.707443 196.69116 627.236001 157.787254 631.425161 149.432752 C 633.350285 145.592208 633.293337 149.906224 632.443282 143.966294 C 632.069647 141.354558 630.284809 138.460959 629.275022 136.060272 C 627.074879 130.818748 624.695559 125.657757 622.155117 120.573132 C 616.786714 109.833216 610.705765 99.4556941 604.069224 89.4502855 C 598.095227 93.6129576 592.710156 98.5406838 587.720944 103.828027 C 590.921151 95.4582515 600.699562 85.0890604 596.517347 75.5848941 C 592.640707 66.7749694 579.694036 67.3859019 572.047708 68.9965422 C 551.271364 73.3772061 531.345075 79.7572856 511.552128 87.1440152 C 517.68308 90.6596542 527.069798 87.9437814 533.161859 85.2556783 C 540.705403 81.9260961 548.817038 78.4326728 556.946731 76.6692994 C 564.037468 75.1308602 573.349181 75.6557068 571.300438 85.2056929 C 569.639219 92.9437088 562.070674 100.395697 557.077295 106.181506 C 546.073805 118.929168 532.277079 128.797117 518.724814 138.656735 C 504.157205 149.256414 490.120185 160.772493 475.367842 171.063929 C 448.700839 189.669601 420.028151 205.839874 392.476368 223.20702 C 378.158775 232.230771 361.935503 239.492537 346.409499 246.18086 C 329.329227 253.538431 312.953168 261.415295 295.232577 267.226097 C 285.391662 270.45432 275.638254 273.110488 265.968184 276.783025 C 259.90668 279.083742 249.351831 283.694894 245.347405 276.862169 C 237.213545 262.984281 266.647394 244.732672 274.713194 236.247652 C 280.277443 241.651628 252.838167 261.788797 254.985529 269.65733 C 256.673138 275.840245 263.199949 267.856468 266.351542 266.17085 C 271.444927 263.446646 277.477261 262.077602 282.595648 258.970177 C 293.094939 252.595651 305.542966 245.245022 307.940343 232.068318 C 306.27218 230.307722 306.293015 228.683197 308.002847 227.193354 C 308.764008 226.288064 309.368214 225.29391 309.812687 224.209504 C 310.559957 222.139276 310.859977 219.54559 311.260003 217.350398 C 312.442024 210.860629 309.475165 204.784627 312.247567 198.433706 C 296.067353 210.694011 280.513569 224.54274 265.154242 237.81525 C 251.376962 249.720103 237.001032 265.308602 231.938204 283.072853 C 231.289551 285.348577 230.211704 287.931155 230.329767 290.333231 C 230.560337 295.048519 231.031201 294.03215 234.830058 295.548373 C 238.630304 297.064597 244.162606 296.934079 248.248982 297.095143 C 250.578299 297.185395 260.980361 294.719449 258.912171 299.830455 C 257.720428 302.776816 250.50885 302.665737 247.926739 302.93788 C 241.447153 303.622402 237.933036 302.91983 241.002679 309.944165 C 242.379157 313.091856 245.166838 315.224566 247.354479 317.661354 C 253.440984 324.439928 256.746754 334.836889 261.534563 342.801227 C 266.990472 351.873575 272.986693 360.501609 279.357939 368.951916 C 281.987275 372.438397 285.501392 378.990648 289.146072 381.47881 C 292.54907 383.801742 288.544644 383.610131 294.197788 382.665963 C 296.661836 382.256361 298.895314 380.652663 301.252411 380.079219 C 315.344989 376.645501 329.830649 372.775799 344.405203 368.538148 C 363.046686 363.117511 382.610452 358.495251 400.396325 350.689199 C 416.3293 343.694022 432.144212 335.367289 448.243865 328.283249 C 452.945558 326.215798 457.641695 324.845365 461.296098 321.039533 C 465.707495 316.44782 469.35912 310.435688 473.427439 305.499631 C 480.345942 297.103474 486.722743 288.562915 494.170447 280.605519 C 499.713862 274.685027 509.538108 263.678523 517.359448 261.315325 C 532.220131 256.826359 524.26545 279.461409 522.344492 285.181959 C 525.837774 285.974783 527.674004 281.494148 531.774269 282.78266 C 536.68292 284.326654 537.191286 290.855301 537.805215 294.945772 C 537.967725 296.035731 536.49263 298.072635 536.94127 299.044573 C 537.094058 299.376421 540.297043 301.270312 540.915138 302.147833 C 543.158339 305.337179 542.716644 309.215212 541.866589 312.654484 C 537.469082 330.468721 521.837515 343.477418 510.340938 356.618022 C 515.484326 355.644695 519.297073 352.713607 524.151554 351.261254 C 528.708793 349.897764 533.289645 349.968577 537.882998 349.578413 C 542.691642 349.16881 547.311385 347.369336 552.231148 347.277696 C 557.393982 347.181891 562.337358 348.652295 567.457133 349.235457" stroke-linecap="round"/>
</g>
		<g transform="matrix(1 0 0 1 -430.0006 -163)" id="ink-layer">
<path style="stroke: none; stroke-width: 1; stroke-dasharray: none; stroke-linecap: butt; stroke-dashoffset: 0; stroke-linejoin: miter; stroke-miterlimit: 4; is-custom-font: none; font-file-url: none; fill: rgb(140,82,255); fill-rule: evenodd; opacity: 1;" transform=" translate(-27.9994, -191)" d="M 23.7365603 188.99996 C 20.9015938 190.853103 20.1024602 192.671148 20.0045836 196.946012 C 19.965433 198.699478 20.0863394 205.240229 22.5367085 204.993143 C 24.8362325 204.7615 23.7365603 191.249002 23.7365603 188.99996 M 9.09180359 199.653389 C 10.4127992 185.951866 15.4254419 172.021151 27.2172912 163.484092 C 30.1334782 161.372746 33.4323969 161.447754 36.6284922 160.115662 C 38.5492912 159.315573 41.5840108 155.595715 43.7647246 156.036042 C 51.7920934 157.659833 42.5179904 168.326296 41.1598641 171.132164 C 36.9512435 179.824796 37.2354361 187.463145 37.3611092 196.840576 C 37.4567921 203.967757 38.9377353 215.982981 35.3446273 222.433698 C 31.5144541 229.302516 23.207177 224.842299 18.5701255 220.776569 C 12.717758 215.644054 8.29777813 207.470924 9.09180359 199.653389" stroke-linecap="round"/>
</g>
		<g transform="matrix(1 0 0 1 -294.0006 -129)" id="ink-layer">
<path style="stroke: none; stroke-width: 1; stroke-dasharray: none; stroke-linecap: butt; stroke-dashoffset: 0; stroke-linejoin: miter; stroke-miterlimit: 4; is-custom-font: none; font-file-url: none; fill: rgb(140,82,255); fill-rule: evenodd; opacity: 1;" transform=" translate(-163.9994, -225)" d="M 150.009581 240.141668 C 150.009581 247.78725 156.215254 242.611093 155.99357 237.173181 C 155.669119 229.166606 149.720364 234.096826 150.009581 240.141668 M 182.999371 197.875809 C 176.207505 203.984072 170.968824 207.4111 169.659851 216.803077 C 168.669051 223.917325 169.654269 230.963395 169.696134 238.129125 C 169.767304 250.141116 160.06723 262.769498 149.628941 249.000164 C 142.01513 238.957011 144.74611 223.164576 150.95466 213.071331 C 154.213136 207.775648 158.864315 202.537012 164.236964 199.236602 C 168.278313 196.752946 179.646001 191.866335 182.999371 197.875809" stroke-linecap="round"/>
</g>
		<g transform="matrix(1 0 0 1 -372.0006 14.5)" id="ink-layer">
<path style="stroke: none; stroke-width: 1; stroke-dasharray: none; stroke-linecap: butt; stroke-dashoffset: 0; stroke-linejoin: miter; stroke-miterlimit: 4; is-custom-font: none; font-file-url: none; fill: rgb(140,82,255); fill-rule: evenodd; opacity: 1;" transform=" translate(-85.9994, -368.5)" d="M 88.1514048 382.99996 C 87.3637221 384.863086 85.5154993 392.46895 89.2865946 390.748558 C 92.6162272 389.2286 90.4591092 384.18738 88.1514048 382.99996 M 68.2238221 359.517458 C 67.6416003 356.657197 67.8788523 338.727365 72.8175111 340.071826 C 76.6967171 341.126116 77.3375701 350.303824 78.9178864 353.498473 C 84.802826 365.392739 98.309826 372.800401 102.9676 385.077416 C 108.166691 398.787326 92.4480662 399.212911 84.1074323 393.660964 C 74.2314783 387.086508 68.5169783 370.990284 68.2238221 359.517458" stroke-linecap="round"/>
</g>
		<g transform="matrix(1 0 0 1 -400.5006 -81)" id="ink-layer">
<path style="stroke: none; stroke-width: 1; stroke-dasharray: none; stroke-linecap: butt; stroke-dashoffset: 0; stroke-linejoin: miter; stroke-miterlimit: 4; is-custom-font: none; font-file-url: none; fill: rgb(140,82,255); fill-rule: evenodd; opacity: 1;" transform=" translate(-57.4994, -273)" d="M 56.1165804 285.99996 C 58.2600022 283.106123 58.4767304 281.560014 57.2549004 278.99996 C 55.6930657 280.698791 55.970438 283.126591 56.1165804 285.99996 M 57.6675168 298.945363 C 46.4940554 300.196364 45.9347051 279.604513 47.8484143 272.534701 C 49.3720682 266.904477 52.6482625 260.853893 56.0206163 256.265929 C 56.7018589 255.340275 63.1621511 247.020902 64.4284768 247.000748 C 69.2879167 246.92445 67.9525188 252.415034 67.4283819 254.459248 C 65.7774183 260.89852 65.1232629 266.281136 65.5674927 273.421487 C 66.044227 281.061375 69.6617198 299.198731 57.6675168 298.945363" stroke-linecap="round"/>
</g>
		<g transform="matrix(1 0 0 1 60.5 -201)" id="ink-layer">
<path style="stroke: none; stroke-width: 1; stroke-dasharray: none; stroke-linecap: butt; stroke-dashoffset: 0; stroke-linejoin: miter; stroke-miterlimit: 4; is-custom-font: none; font-file-url: none; fill: rgb(140,82,255); fill-rule: evenodd; opacity: 1;" transform=" translate(-518.5, -153)" d="M 565 120.61802 C 549.022963 134.016859 533.854695 148.522858 516.482217 160.243055 C 507.981058 165.978529 499.094373 171.053012 490.611373 176.882127 C 486.290952 179.851078 481.88253 182.508813 477.089978 184.69146 C 472.856161 186.619351 470.087627 186.869977 473.600676 182.293991 C 475.948761 179.236907 481.212048 177.106589 484.410808 174.933581 C 489.333266 171.587313 493.981944 167.874747 499.160024 164.905796 C 508.288363 159.668819 517.360828 155.441231 525.775382 149.018601 C 533.244277 143.320308 540.949237 137.75559 548.077303 131.699259 C 551.133586 129.102116 561.269045 117.178113 565 120.61802" stroke-linecap="round"/>
</g>
		<g transform="matrix(1 0 0 1 86.5 -161.5)" id="ink-layer">
<path style="stroke: none; stroke-width: 1; stroke-dasharray: none; stroke-linecap: butt; stroke-dashoffset: 0; stroke-linejoin: miter; stroke-miterlimit: 4; is-custom-font: none; font-file-url: none; fill: rgb(140,82,255); fill-rule: evenodd; opacity: 1;" transform=" translate(-544.5, -192.5)" d="M 565.323112 169 C 572.507939 175.146444 554.530938 191.984131 550.430754 195.800293 C 546.10791 199.824831 541.346537 203.41491 536.644902 206.980474 C 534.989893 208.236184 525.959984 216.639365 523.668225 215.961118 C 519.145803 214.622329 525.082924 209.170476 526.626603 207.748609 C 531.620139 203.145245 536.719574 198.676714 541.60178 193.949414 C 546.004727 189.689259 550.772888 185.743714 555.030563 181.346003 C 558.48042 177.783163 561.377703 171.745675 565.323112 169" stroke-linecap="round"/>
</g>
		<g transform="matrix(1 0 0 1 -425.5006 61)" id="ink-layer">
<path style="stroke: none; stroke-width: 1; stroke-dasharray: none; stroke-linecap: butt; stroke-dashoffset: 0; stroke-linejoin: miter; stroke-miterlimit: 4; is-custom-font: none; font-file-url: none; fill: rgb(140,82,255); fill-rule: evenodd; opacity: 1;" transform=" translate(-32.4994, -415)" d="M 32.9993711 416.756416 C 31.123364 412.408683 27.7635842 417.235188 29.4668642 419.405711 C 31.0777833 421.461222 32.7594725 417.590924 32.9993711 416.756416 M 21.9993711 408.171913 C 23.0050642 401.780093 25.3293329 398.227601 31.3257786 403.683642 C 35.446327 407.433421 43.7335183 418.093565 42.9471221 423.905522 C 41.9148897 431.529051 33.5187484 429.365563 29.1663318 425.37984 C 24.7049651 421.29414 22.7354826 413.839905 21.9993711 408.171913" stroke-linecap="round"/>
</g>
		<g transform="matrix(1 0 0 1 -429.5 167.5)" id="ink-layer">
<path style="stroke: none; stroke-width: 1; stroke-dasharray: none; stroke-linecap: butt; stroke-dashoffset: 0; stroke-linejoin: miter; stroke-miterlimit: 4; is-custom-font: none; font-file-url: none; fill: rgb(140,82,255); fill-rule: evenodd; opacity: 1;" transform=" translate(-28.5, -521.5)" d="M 35.1398753 533.974922 C 27.7941139 533.415691 21.5271395 527.776296 18.4075542 521.166806 C 15.7828764 515.608728 13.2986077 506.649608 22.5197348 509.571308 C 28.5295241 511.475834 51.6970325 534.870834 35.1398753 533.974922" stroke-linecap="round"/>
</g>
		<g transform="matrix(1 0 0 1 -343.5 132)" id="ink-layer">
<path style="stroke: none; stroke-width: 1; stroke-dasharray: none; stroke-linecap: butt; stroke-dashoffset: 0; stroke-linejoin: miter; stroke-miterlimit: 4; is-custom-font: none; font-file-url: none; fill: rgb(140,82,255); fill-rule: evenodd; opacity: 1;" transform=" translate(-114.5, -486)" d="M 124.163657 497.740455 C 118.48727 499.032724 112.871592 495.293872 109.380765 491.07781 C 107.209002 488.452449 102.153512 479.247498 104.700574 475.457969 C 108.250731 470.173462 113.611151 480.795968 115.460047 482.899072 C 118.360331 486.191683 127.843513 492.489733 124.163657 497.740455" stroke-linecap="round"/>
</g>
		<g transform="matrix(1 0 0 1 -332 -11)" id="ink-layer">
<path style="stroke: none; stroke-width: 1; stroke-dasharray: none; stroke-linecap: butt; stroke-dashoffset: 0; stroke-linejoin: miter; stroke-miterlimit: 4; is-custom-font: none; font-file-url: none; fill: rgb(140,82,255); fill-rule: evenodd; opacity: 1;" transform=" translate(-126, -342.9999)" d="M 129.276614 354 C 124.82706 351.935214 120.69562 349.449294 118.906403 344.516977 C 117.768176 341.375505 116.812495 331.956538 121.86606 332 C 127.711552 332.051941 141.097795 353.056877 129.276614 354" stroke-linecap="round"/>
</g>
		<g transform="matrix(1 0 0 1 -357 -85.5)" id="ink-layer">
<path style="stroke: none; stroke-width: 1; stroke-dasharray: none; stroke-linecap: butt; stroke-dashoffset: 0; stroke-linejoin: miter; stroke-miterlimit: 4; is-custom-font: none; font-file-url: none; fill: rgb(140,82,255); fill-rule: evenodd; opacity: 1;" transform=" translate(-101, -268.5)" d="M 98.0790061 256.00257 C 104.037213 255.894906 105.447813 259.180815 106.276428 263.902247 C 106.838864 267.106331 109.56833 277.983281 106.733595 280.211211 C 102.683759 283.395198 96.2413158 276.099876 94.938992 273.23601 C 92.2546408 267.340321 95.9661135 261.540813 98.0790061 256.00257" stroke-linecap="round"/>
</g>
		<g transform="matrix(1 0 0 1 -261 232)" id="ink-layer">
<path style="stroke: none; stroke-width: 1; stroke-dasharray: none; stroke-linecap: butt; stroke-dashoffset: 0; stroke-linejoin: miter; stroke-miterlimit: 4; is-custom-font: none; font-file-url: none; fill: rgb(140,82,255); fill-rule: evenodd; opacity: 1;" transform=" translate(-197, -586)" d="M 200.457949 582.138012 C 203.35906 583.458025 209.959124 586.385322 207.436916 590.927084 C 204.800322 595.677119 197.229409 591.060666 194.401219 588.985129 C 193.217325 588.116133 185.695026 582.428156 186.009587 580.520673 C 186.673025 576.467272 197.042102 581.757377 200.457949 582.138012" stroke-linecap="round"/>
</g>
		<g transform="matrix(1 0 0 1 -452.5 -61.5)" id="ink-layer">
<path style="stroke: none; stroke-width: 1; stroke-dasharray: none; stroke-linecap: butt; stroke-dashoffset: 0; stroke-linejoin: miter; stroke-miterlimit: 4; is-custom-font: none; font-file-url: none; fill: rgb(140,82,255); fill-rule: evenodd; opacity: 1;" transform=" translate(-5.5, -292.5)" d="M 9.32642648 285.507569 C 11.3088479 290.47232 13.5403391 307.526123 3.10113084 298.316931 C -0.0846450172 295.506199 -0.565407555 291.995895 0.532237035 288.137187 C 2.11933264 282.544756 4.42902014 283.653564 9.32642648 285.507569" stroke-linecap="round"/>
</g>
		<g transform="matrix(1 0 0 1 114.5 -143.5)" id="ink-layer">
<path style="stroke: none; stroke-width: 1; stroke-dasharray: none; stroke-linecap: butt; stroke-dashoffset: 0; stroke-linejoin: miter; stroke-miterlimit: 4; is-custom-font: none; font-file-url: none; fill: rgb(140,82,255); fill-rule: evenodd; opacity: 1;" transform=" translate(-572.5, -210.5)" d="M 562.537575 222 C 560.225705 217.277224 565.933388 214.230919 568.982829 211.187292 C 570.974134 209.198825 579.346852 198.415576 582.092027 199.024837 C 587.738586 200.278174 565.313992 219.893698 562.537575 222" stroke-linecap="round"/>
</g>
		<g transform="matrix(1 0 0 1 -352 217)" id="ink-layer">
<path style="stroke: none; stroke-width: 1; stroke-dasharray: none; stroke-linecap: butt; stroke-dashoffset: 0; stroke-linejoin: miter; stroke-miterlimit: 4; is-custom-font: none; font-file-url: none; fill: rgb(140,82,255); fill-rule: evenodd; opacity: 1;" transform=" translate(-106, -571)" d="M 98.0039366 564.085532 C 103.450952 563.211554 104.721649 569.262174 108.231126 571.899331 C 109.73597 573.03081 114.902282 574.025294 113.862995 576.426515 C 111.132641 582.733367 97.7369261 568.32604 98.0039366 564.085532" stroke-linecap="round"/>
</g>
		<g transform="matrix(1 0 0 1 -308 73)" id="ink-layer">
<path style="stroke: none; stroke-width: 1; stroke-dasharray: none; stroke-linecap: butt; stroke-dashoffset: 0; stroke-linejoin: miter; stroke-miterlimit: 4; is-custom-font: none; font-file-url: none; fill: rgb(140,82,255); fill-rule: evenodd; opacity: 1;" transform=" translate(-150, -427)" d="M 144 421.192417 C 147.743791 419.624744 158.550014 428.043483 155.447387 431.680485 C 150.809269 437.121312 144.26417 424.168995 144 421.192417" stroke-linecap="round"/>
</g>
		<g transform="matrix(1 0 0 1 -240.5 184.5)" id="ink-layer">
<path style="stroke: none; stroke-width: 1; stroke-dasharray: none; stroke-linecap: butt; stroke-dashoffset: 0; stroke-linejoin: miter; stroke-miterlimit: 4; is-custom-font: none; font-file-url: none; fill: rgb(140,82,255); fill-rule: evenodd; opacity: 1;" transform=" translate(-217.5, -538.5)" d="M 222.917106 542.985728 C 220.188027 543.256752 208.671173 539.636554 212.938077 534.789548 C 215.93375 531.385384 223.896488 539.90365 222.917106 542.985728" stroke-linecap="round"/>
</g>
		<g transform="matrix(1 0 0 1 -378 162.5)" id="ink-layer">
<path style="stroke: none; stroke-width: 1; stroke-dasharray: none; stroke-linecap: butt; stroke-dashoffset: 0; stroke-linejoin: miter; stroke-miterlimit: 4; is-custom-font: none; font-file-url: none; fill: rgb(140,82,255); fill-rule: evenodd; opacity: 1;" transform=" translate(-80, -516.5)" d="M 85 519.728384 C 82.2905457 520.811409 72.5187058 518.583017 75.5911277 514.338927 C 78.5178221 510.298973 85.0040461 516.374183 85 519.728384" stroke-linecap="round"/>
</g>
		<g transform="matrix(1 0 0 1 -290 186.5)" id="ink-layer">
<path style="stroke: none; stroke-width: 1; stroke-dasharray: none; stroke-linecap: butt; stroke-dashoffset: 0; stroke-linejoin: miter; stroke-miterlimit: 4; is-custom-font: none; font-file-url: none; fill: rgb(140,82,255); fill-rule: evenodd; opacity: 1;" transform=" translate(-168, -540.5)" d="M 165 538.036545 C 168.167598 537.707941 170.455952 539.618039 171 542.85234 C 167.038247 543.417259 165.816072 542.474795 165 538.036545" stroke-linecap="round"/>
</g>
		<g transform="matrix(1 0 0 1 121 -285.5)" id="ink-layer">
<path style="stroke: none; stroke-width: 1; stroke-dasharray: none; stroke-linecap: butt; stroke-dashoffset: 0; stroke-linejoin: miter; stroke-miterlimit: 4; is-custom-font: none; font-file-url: none; fill: rgb(140,82,255); fill-rule: evenodd; opacity: 1;" transform=" translate(-579, -68.5)" d="M 577 68.4905 C 578.338413 68.4965 579.674286 68.5035 581 68.5095 C 579.660317 68.5025 578.330794 68.4965 577 68.4905" stroke-linecap="round"/>
</g>
		<g transform="matrix(1 0 0 1 95 -7)" id="ink-layer">
<path style="stroke: none; stroke-width: 1; stroke-dasharray: none; stroke-linecap: butt; stroke-dashoffset: 0; stroke-linejoin: miter; stroke-miterlimit: 4; is-custom-font: none; font-file-url: none; fill: rgb(140,82,255); fill-rule: evenodd; opacity: 1;" transform=" translate(-553, -347)" d="M 556 346.996 C 553.99946 346.998 551.998919 347.002 550 347.004 C 552.00054 347 554.001081 346.998 556 346.996" stroke-linecap="round"/>
</g>
		<g transform="matrix(1 0 0 1 -175 -330)" id="ink-layer">
<path style="stroke: none; stroke-width: 1; stroke-dasharray: none; stroke-linecap: butt; stroke-dashoffset: 0; stroke-linejoin: miter; stroke-miterlimit: 4; is-custom-font: none; font-file-url: none; fill: rgb(140,82,255); fill-rule: evenodd; opacity: 1;" transform=" translate(-283, -24)" d="M 283.139 21 C 283.047 23.0023035 282.955 25.004607 282.861 27 C 282.951 24.9959689 283.045 22.9971206 283.139 21" stroke-linecap="round"/>
</g>
		<g transform="matrix(1 0 0 1 443.5 8)" id="ink-layer">
<path style="stroke: none; stroke-width: 1; stroke-dasharray: none; stroke-linecap: butt; stroke-dashoffset: 0; stroke-linejoin: miter; stroke-miterlimit: 4; is-custom-font: none; font-file-url: none; fill: rgb(140,82,255); fill-rule: evenodd; opacity: 1;" transform=" translate(-901.5, -362)" d="M 902.805593 361 C 903.444152 363.224987 902.5098 363.593511 900 362.105573 C 900.934351 361.737049 901.869972 361.368524 902.805593 361" stroke-linecap="round"/>
</g>
		<g transform="matrix(1 0 0 1 389.5 181.5)" id="ink-layer">
<path style="stroke: none; stroke-width: 1; stroke-dasharray: none; stroke-linecap: butt; stroke-dashoffset: 0; stroke-linejoin: miter; stroke-miterlimit: 4; is-custom-font: none; font-file-url: none; fill: rgb(140,82,255); fill-rule: evenodd; opacity: 1;" transform=" translate(-847.5, -535.5)" d="M 846 535.4905 C 847.003717 535.4965 848.007435 535.5035 849 535.5095 C 847.993494 535.5035 846.996747 535.4965 846 535.4905" stroke-linecap="round"/>
</g>
		<g transform="matrix(1 0 0 1 195.5 21)" id="ink-layer">
<path style="stroke: none; stroke-width: 1; stroke-dasharray: none; stroke-linecap: butt; stroke-dashoffset: 0; stroke-linejoin: miter; stroke-miterlimit: 4; is-custom-font: none; font-file-url: none; fill: rgb(140,82,255); fill-rule: evenodd; opacity: 1;" transform=" translate(-653.5, -375)" d="M 656 374.525041 C 654.322972 375.803041 652.654825 375.983041 651 374.457041 C 652.666667 374.481041 654.333333 374.503041 656 374.525041" stroke-linecap="round"/>
</g>
		<g transform="matrix(1 0 0 1 160.5 -147.5)" id="ink-layer">
<path style="stroke: none; stroke-width: 1; stroke-dasharray: none; stroke-linecap: butt; stroke-dashoffset: 0; stroke-linejoin: miter; stroke-miterlimit: 4; is-custom-font: none; font-file-url: none; fill: rgb(140,82,255); fill-rule: evenodd; opacity: 1;" transform=" translate(-618.5, -206.5)" d="M 618.5645 204 C 618.5225 205.669449 618.4795 207.337229 618.4355 209 C 618.4775 207.328881 618.5215 205.664441 618.5645 204" stroke-linecap="round"/>
</g>
		<g transform="matrix(1 0 0 1 244.5 -304.5)" id="ink-layer">
<path style="stroke: none; stroke-width: 1; stroke-dasharray: none; stroke-linecap: butt; stroke-dashoffset: 0; stroke-linejoin: miter; stroke-miterlimit: 4; is-custom-font: none; font-file-url: none; fill: rgb(140,82,255); fill-rule: evenodd; opacity: 1;" transform=" translate(-702.5, -49.5)" d="M 705 49.6996857 C 703.333333 49.6986857 701.665158 49.6966857 700 49.6946857 C 701.668175 49.0706857 703.334842 49.2756857 705 49.6996857" stroke-linecap="round"/>
</g>
		<g transform="matrix(1 0 0 1 -244.5 -324.5)" id="ink-layer">
<path style="stroke: none; stroke-width: 1; stroke-dasharray: none; stroke-linecap: butt; stroke-dashoffset: 0; stroke-linejoin: miter; stroke-miterlimit: 4; is-custom-font: none; font-file-url: none; fill: rgb(140,82,255); fill-rule: evenodd; opacity: 1;" transform=" translate(-213.5, -29.5)" d="M 216 29.353 C 214.333815 29.451 212.666185 29.549 211 29.647 C 212.666185 29.549 214.333815 29.451 216 29.353" stroke-linecap="round"/>
</g>
		<g transform="matrix(1 0 0 1 -203 -324.5)" id="ink-layer">
<path style="stroke: none; stroke-width: 1; stroke-dasharray: none; stroke-linecap: butt; stroke-dashoffset: 0; stroke-linejoin: miter; stroke-miterlimit: 4; is-custom-font: none; font-file-url: none; fill: rgb(140,82,255); fill-rule: evenodd; opacity: 1;" transform=" translate(-255, -29.5)" d="M 257 29.67 C 255.666667 29.557 254.332157 29.443 253 29.33 C 254.332157 29.443 255.66549 29.557 257 29.67" stroke-linecap="round"/>
</g>
		<g transform="matrix(1 0 0 1 -181 -322.5)" id="ink-layer">
<path style="stroke: none; stroke-width: 1; stroke-dasharray: none; stroke-linecap: butt; stroke-dashoffset: 0; stroke-linejoin: miter; stroke-miterlimit: 4; is-custom-font: none; font-file-url: none; fill: rgb(140,82,255); fill-rule: evenodd; opacity: 1;" transform=" translate(-277, -31.5)" d="M 279 31.2548309 C 277.667151 31.7518309 276.334301 32.0458309 275 31.2618309 C 276.334301 31.2598309 277.667151 31.2568309 279 31.2548309" stroke-linecap="round"/>
</g>
		<g transform="matrix(1 0 0 1 -300.5 -319.5)" id="ink-layer">
<path style="stroke: none; stroke-width: 1; stroke-dasharray: none; stroke-linecap: butt; stroke-dashoffset: 0; stroke-linejoin: miter; stroke-miterlimit: 4; is-custom-font: none; font-file-url: none; fill: rgb(140,82,255); fill-rule: evenodd; opacity: 1;" transform=" translate(-157.5, -34.5)" d="M 160 33.993 C 158.332192 34.332 156.666096 34.671 155 35.007 C 156.667808 34.671 158.333904 34.332 160 33.993" stroke-linecap="round"/>
</g>
		<g transform="matrix(1 0 0 1 161.5 88.5)" id="ink-layer">
<path style="stroke: none; stroke-width: 1; stroke-dasharray: none; stroke-linecap: butt; stroke-dashoffset: 0; stroke-linejoin: miter; stroke-miterlimit: 4; is-custom-font: none; font-file-url: none; fill: rgb(140,82,255); fill-rule: evenodd; opacity: 1;" transform=" translate(-619.5, -442.5)" d="M 619.568 441 C 619.522 442.00201 619.476 443.002814 619.432 444 C 619.479 442.996785 619.523 441.998392 619.568 441" stroke-linecap="round"/>
</g>
		<g transform="matrix(1 0 0 1 -389.5 7)" id="ink-layer">
<path style="stroke: none; stroke-width: 1; stroke-dasharray: none; stroke-linecap: butt; stroke-dashoffset: 0; stroke-linejoin: miter; stroke-miterlimit: 4; is-custom-font: none; font-file-url: none; fill: rgb(140,82,255); fill-rule: evenodd; opacity: 1;" transform=" translate(-68.5, -361)" d="M 68.4715 360 C 68.4915 360.668155 68.5105 361.336311 68.5285 362 C 68.5075 361.330058 68.4905 360.665476 68.4715 360" stroke-linecap="round"/>
</g>
		<g transform="matrix(1 0 0 1 448.5 2)" id="ink-layer">
<path style="stroke: none; stroke-width: 1; stroke-dasharray: none; stroke-linecap: butt; stroke-dashoffset: 0; stroke-linejoin: miter; stroke-miterlimit: 4; is-custom-font: none; font-file-url: none; fill: rgb(140,82,255); fill-rule: evenodd; opacity: 1;" transform=" translate(-906.5, -356)" d="M 909 356.412104 L 904 356.438104 C 905.662549 355.196104 907.330392 355.354104 909 356.412104" stroke-linecap="round"/>
</g>
		<g transform="matrix(1 0 0 1 107 -5)" id="ink-layer">
<path style="stroke: none; stroke-width: 1; stroke-dasharray: none; stroke-linecap: butt; stroke-dashoffset: 0; stroke-linejoin: miter; stroke-miterlimit: 4; is-custom-font: none; font-file-url: none; fill: rgb(140,82,255); fill-rule: evenodd; opacity: 1;" transform=" translate(-565, -349)" d="M 567 349.33 C 565.665288 349.11 564.331954 348.89 563 348.67 C 564.331954 348.89 565.666667 349.11 567 349.33" stroke-linecap="round"/>
</g>
		<g transform="matrix(1 0 0 1 -259.5 227.5)" id="ink-layer">
<path style="stroke: none; stroke-width: 1; stroke-dasharray: none; stroke-linecap: butt; stroke-dashoffset: 0; stroke-linejoin: miter; stroke-miterlimit: 4; is-custom-font: none; font-file-url: none; fill: rgb(140,82,255); fill-rule: evenodd; opacity: 1;" transform=" translate(-198.5, -581.5)" d="M 201 581.9875 C 199.332765 581.6635 197.667235 581.3365 196 581.0125 L 201 581.9875 Z" stroke-linecap="round"/>
</g>
		<g transform="matrix(1 0 0 1 79.5 -60.5)" id="ink-layer">
<path style="stroke: none; stroke-width: 1; stroke-dasharray: none; stroke-linecap: butt; stroke-dashoffset: 0; stroke-linejoin: miter; stroke-miterlimit: 4; is-custom-font: none; font-file-url: none; fill: rgb(140,82,255); fill-rule: evenodd; opacity: 1;" transform=" translate(-537.5, -293.5)" d="M 537.546 295 C 537.515 293.998783 537.484 292.997567 537.454 292 C 537.484 293.001217 537.515 294.001217 537.546 295" stroke-linecap="round"/>
</g>
		<g transform="matrix(1 0 0 1 -238.5 -324.5)" id="ink-layer">
<path style="stroke: none; stroke-width: 1; stroke-dasharray: none; stroke-linecap: butt; stroke-dashoffset: 0; stroke-linejoin: miter; stroke-miterlimit: 4; is-custom-font: none; font-file-url: none; fill: rgb(140,82,255); fill-rule: evenodd; opacity: 1;" transform=" translate(-219.5, -29.5)" d="M 221 29.6845 C 219.999655 29.5615 218.99931 29.4385 218 29.3155 C 218.99931 29.4385 219.999655 29.5615 221 29.6845" stroke-linecap="round"/>
</g>
		<g transform="matrix(1 0 0 1 -74.5 -349.5)" id="ink-layer">
<path style="stroke: none; stroke-width: 1; stroke-dasharray: none; stroke-linecap: butt; stroke-dashoffset: 0; stroke-linejoin: miter; stroke-miterlimit: 4; is-custom-font: none; font-file-url: none; fill: rgb(140,82,255); fill-rule: evenodd; opacity: 1;" transform=" translate(-383.5, -4.5)" d="M 385 4.9545 C 384 4.6515 382.998985 4.3485 382 4.0455 C 383 4.3485 384 4.6515 385 4.9545" stroke-linecap="round"/>
</g>
		<g transform="matrix(1 0 0 1 47 325.5)" id="ink-layer">
<path style="stroke: none; stroke-width: 1; stroke-dasharray: none; stroke-linecap: butt; stroke-dashoffset: 0; stroke-linejoin: miter; stroke-miterlimit: 4; is-custom-font: none; font-file-url: none; fill: rgb(140,82,255); fill-rule: evenodd; opacity: 1;" transform=" translate(-505, -679.5)" d="M 504 679.439 C 504.668831 679.48 505.338745 679.521 506 679.561 C 505.327922 679.52 504.66342 679.479 504 679.439" stroke-linecap="round"/>
</g>
		<g transform="matrix(1 0 0 1 -411.5 -211.5)" id="ink-layer">
<path style="stroke: none; stroke-width: 1; stroke-dasharray: none; stroke-linecap: butt; stroke-dashoffset: 0; stroke-linejoin: miter; stroke-miterlimit: 4; is-custom-font: none; font-file-url: none; fill: rgb(140,82,255); fill-rule: evenodd; opacity: 1;" transform=" translate(-46.5, -142.5)" d="M 45 142.46 C 46.0039238 142.486 47.0078475 142.513 48 142.54 C 46.9910314 142.513 45.9955157 142.486 45 142.46" stroke-linecap="round"/>
</g>
		<g transform="matrix(1 0 0 1 255.5 -303.5)" id="ink-layer">
<path style="stroke: none; stroke-width: 1; stroke-dasharray: none; stroke-linecap: butt; stroke-dashoffset: 0; stroke-linejoin: miter; stroke-miterlimit: 4; is-custom-font: none; font-file-url: none; fill: rgb(140,82,255); fill-rule: evenodd; opacity: 1;" transform=" translate(-713.5, -50.5)" d="M 716 50.676 C 714.333333 50.559 712.666667 50.442 711 50.324 C 712.668397 50.442 714.333333 50.559 716 50.676" stroke-linecap="round"/>
</g>
		<g transform="matrix(1 0 0 1 -272.5 -308)" id="ink-layer">
<path style="stroke: none; stroke-width: 1; stroke-dasharray: none; stroke-linecap: butt; stroke-dashoffset: 0; stroke-linejoin: miter; stroke-miterlimit: 4; is-custom-font: none; font-file-url: none; fill: rgb(140,82,255); fill-rule: evenodd; opacity: 1;" transform=" translate(-185.5, -46)" d="M 189 45.994 C 186.661017 45.998 184.325116 46.002 182 46.006 C 184.343606 46.002 186.671803 45.998 189 45.994" stroke-linecap="round"/>
</g>
		<g transform="matrix(1 0 0 1 203.5 -99.5)" id="ink-layer">
<path style="stroke: none; stroke-width: 1; stroke-dasharray: none; stroke-linecap: butt; stroke-dashoffset: 0; stroke-linejoin: miter; stroke-miterlimit: 4; is-custom-font: none; font-file-url: none; fill: rgb(140,82,255); fill-rule: evenodd; opacity: 1;" transform=" translate(-661.5, -254.5)" d="M 661.452 252 C 661.482 253.668973 661.515 255.337947 661.548 257 C 661.518 255.329873 661.488 253.66436 661.452 252" stroke-linecap="round"/>
</g>
		<g transform="matrix(1 0 0 1 79 256)" id="ink-layer">
<path style="stroke: none; stroke-width: 1; stroke-dasharray: none; stroke-linecap: butt; stroke-dashoffset: 0; stroke-linejoin: miter; stroke-miterlimit: 4; is-custom-font: none; font-file-url: none; fill: rgb(140,82,255); fill-rule: evenodd; opacity: 1;" transform=" translate(-537, -610)" d="M 539 610.032 C 537.66203 610.012 536.326589 609.99 535 609.968 C 536.3405 609.986 537.669617 610.01 539 610.032" stroke-linecap="round"/>
</g>
		<g transform="matrix(1 0 0 1 226 -274)" id="ink-layer">
<path style="stroke: none; stroke-width: 1; stroke-dasharray: none; stroke-linecap: butt; stroke-dashoffset: 0; stroke-linejoin: miter; stroke-miterlimit: 4; is-custom-font: none; font-file-url: none; fill: rgb(140,82,255); fill-rule: evenodd; opacity: 1;" transform=" translate(-684, -80)" d="M 681 80.1938076 C 682.999534 79.9718076 684.999068 79.7498076 687 79.5278076 C 685.080168 81.2258076 683.006525 80.0958076 681 80.1938076" stroke-linecap="round"/>
</g>
		<g transform="matrix(1 0 0 1 68.5 256.5)" id="ink-layer">
<path style="stroke: none; stroke-width: 1; stroke-dasharray: none; stroke-linecap: butt; stroke-dashoffset: 0; stroke-linejoin: miter; stroke-miterlimit: 4; is-custom-font: none; font-file-url: none; fill: rgb(140,82,255); fill-rule: evenodd; opacity: 1;" transform=" translate(-526.5, -610.5)" d="M 528 610.5555 C 526.996743 610.5175 525.994571 610.4805 525 610.4445 C 526.006515 610.4825 527.003257 610.5185 528 610.5555" stroke-linecap="round"/>
</g>
		<g transform="matrix(1 0 0 1 35.5 276.5)" id="ink-layer">
<path style="stroke: none; stroke-width: 1; stroke-dasharray: none; stroke-linecap: butt; stroke-dashoffset: 0; stroke-linejoin: miter; stroke-miterlimit: 4; is-custom-font: none; font-file-url: none; fill: rgb(140,82,255); fill-rule: evenodd; opacity: 1;" transform=" translate(-493.5, -630.5)" d="M 493.424 628 C 493.474 629.669675 493.525 631.337846 493.576 633 C 493.527 631.327316 493.475 629.663658 493.424 628" stroke-linecap="round"/>
</g>
		<g transform="matrix(1 0 0 1 190 -212.5)" id="ink-layer">
<path style="stroke: none; stroke-width: 1; stroke-dasharray: none; stroke-linecap: butt; stroke-dashoffset: 0; stroke-linejoin: miter; stroke-miterlimit: 4; is-custom-font: none; font-file-url: none; fill: rgb(140,82,255); fill-rule: evenodd; opacity: 1;" transform=" translate(-648, -141.5)" d="M 646 141.597536 C 647.333746 141.473536 648.667491 141.349536 650 141.226536 C 648.782555 142.164536 647.353542 141.615536 646 141.597536" stroke-linecap="round"/>
</g>
		<g transform="matrix(1 0 0 1 -247 54)" id="ink-layer">
<path style="stroke: none; stroke-width: 1; stroke-dasharray: none; stroke-linecap: butt; stroke-dashoffset: 0; stroke-linejoin: miter; stroke-miterlimit: 4; is-custom-font: none; font-file-url: none; fill: rgb(140,82,255); fill-rule: evenodd; opacity: 1;" transform=" translate(-211, -408)" d="M 209 407.633 C 210.333333 407.879 211.668048 408.123 213 408.367 C 211.666667 408.123 210.333333 407.879 209 407.633" stroke-linecap="round"/>
</g>
		<g transform="matrix(1 0 0 1 -38.5 -210)" id="ink-layer">
<path style="stroke: none; stroke-width: 1; stroke-dasharray: none; stroke-linecap: butt; stroke-dashoffset: 0; stroke-linejoin: miter; stroke-miterlimit: 4; is-custom-font: none; font-file-url: none; fill: rgb(140,82,255); fill-rule: evenodd; opacity: 1;" transform=" translate(-419.5, -144)" d="M 417 144.504209 C 418.663757 143.086209 420.331006 143.240209 422 144.488209 C 420.332751 144.492209 418.667249 144.498209 417 144.504209" stroke-linecap="round"/>
</g>
		<g transform="matrix(1 0 0 1 -103.5 -160)" id="ink-layer">
<path style="stroke: none; stroke-width: 1; stroke-dasharray: none; stroke-linecap: butt; stroke-dashoffset: 0; stroke-linejoin: miter; stroke-miterlimit: 4; is-custom-font: none; font-file-url: none; fill: rgb(140,82,255); fill-rule: evenodd; opacity: 1;" transform=" translate(-354.5, -194)" d="M 354.427 195 C 354.475 194.333037 354.522 193.666075 354.573 193 C 354.527 193.667851 354.477 194.333925 354.427 195" stroke-linecap="round"/>
</g>
		<g transform="matrix(1 0 0 1 187.5 -176)" id="ink-layer">
<path style="stroke: none; stroke-width: 1; stroke-dasharray: none; stroke-linecap: butt; stroke-dashoffset: 0; stroke-linejoin: miter; stroke-miterlimit: 4; is-custom-font: none; font-file-url: none; fill: rgb(140,82,255); fill-rule: evenodd; opacity: 1;" transform=" translate(-645.5, -178)" d="M 645.479 176 C 645.493 177.335505 645.506 178.67101 645.521 180 C 645.508 178.661238 645.494 177.330619 645.479 176" stroke-linecap="round"/>
</g>
		<g transform="matrix(1 0 0 1 -245 37.5)" id="ink-layer">
<path style="stroke: none; stroke-width: 1; stroke-dasharray: none; stroke-linecap: butt; stroke-dashoffset: 0; stroke-linejoin: miter; stroke-miterlimit: 4; is-custom-font: none; font-file-url: none; fill: rgb(140,82,255); fill-rule: evenodd; opacity: 1;" transform=" translate(-213, -391.5)" d="M 204.284207 385.03113 C 206.478473 385.77548 210.891354 388.022064 213.44799 387.724324 C 215.49473 387.484778 217.181966 384.997295 219.15566 385 C 224.470883 385.006769 223.485469 391.151041 220.917375 394.449189 C 213.972207 403.370565 198.45336 393.696719 204.284207 385.03113" stroke-linecap="round"/>
</g>
		<g transform="matrix(1 0 0 1 -235 8.5)" id="ink-layer">
<path style="stroke: none; stroke-width: 1; stroke-dasharray: none; stroke-linecap: butt; stroke-dashoffset: 0; stroke-linejoin: miter; stroke-miterlimit: 4; is-custom-font: none; font-file-url: none; fill: rgb(140,82,255); fill-rule: evenodd; opacity: 1;" transform=" translate(-223, -362.5)" d="M 225.977079 353 C 233.225312 354.870864 229.615386 370.814066 223.522215 371.910024 C 216.34777 373.201533 215.097634 360.238287 216.515212 355.552372 C 220.20744 357.745748 217.921437 365.572145 222.574326 363.409415 C 225.532933 362.031806 225.083111 355.6662 225.977079 353" stroke-linecap="round"/>
</g>
</g>
</g>
</svg>